<svg xmlns="http://www.w3.org/2000/svg" version="1.1" xmlns:xlink="http://www.w3.org/1999/xlink" xmlns:svgjs="http://svgjs.dev/svgjs" viewBox="0 0 800 800" opacity="1"><defs><linearGradient x1="50%" y1="0%" x2="50%" y2="100%" id="nnneon-grad"><stop stop-color="hsl(206, 75%, 49%)" stop-opacity="1" offset="0%"></stop><stop stop-color="hsl(331, 90%, 56%)" stop-opacity="1" offset="100%"></stop></linearGradient><filter id="nnneon-filter" x="-100%" y="-100%" width="400%" height="400%" filterUnits="objectBoundingBox" primitiveUnits="userSpaceOnUse" color-interpolation-filters="sRGB">
	<feGaussianBlur stdDeviation="5 5" x="0%" y="0%" width="100%" height="100%" in="SourceGraphic" edgeMode="none" result="blur"></feGaussianBlur></filter><filter id="nnneon-filter2" x="-100%" y="-100%" width="400%" height="400%" filterUnits="objectBoundingBox" primitiveUnits="userSpaceOnUse" color-interpolation-filters="sRGB">
	<feGaussianBlur stdDeviation="8 17" x="0%" y="0%" width="100%" height="100%" in="SourceGraphic" edgeMode="none" result="blur"></feGaussianBlur></filter></defs><g stroke-width="5" stroke="url(#nnneon-grad)" fill="none" transform="rotate(15, 400, 400)"><path d="M376.8342041457212 91.36726382285855C386.3248696742751 72.18950286919036 413.6751481664202 72.18950286919036 423.1658136949741 91.36726382285855L717.2859839435698 685.7072695290335C725.7867461776149 702.8845470624674 713.287601707003 723.0160268560147 694.1227637728455 723.0160268560147H105.87725406784978C86.7124161336921 723.0160268560147 74.21327166308043 702.8845470624674 82.71403389712549 685.7072695290335L376.8342041457212 91.36726382285855Z " filter="url(#nnneon-filter)"></path><path d="M376.8342041457212 91.36726382285855C386.3248696742751 72.18950286919036 413.6751481664202 72.18950286919036 423.1658136949741 91.36726382285855L717.2859839435698 685.7072695290335C725.7867461776149 702.8845470624674 713.287601707003 723.0160268560147 694.1227637728455 723.0160268560147H105.87725406784978C86.7124161336921 723.0160268560147 74.21327166308043 702.8845470624674 82.71403389712549 685.7072695290335L376.8342041457212 91.36726382285855Z " filter="url(#nnneon-filter2)" opacity="0.25"></path><path d="M376.8342041457212 91.36726382285855C386.3248696742751 72.18950286919036 413.6751481664202 72.18950286919036 423.1658136949741 91.36726382285855L717.2859839435698 685.7072695290335C725.7867461776149 702.8845470624674 713.287601707003 723.0160268560147 694.1227637728455 723.0160268560147H105.87725406784978C86.7124161336921 723.0160268560147 74.21327166308043 702.8845470624674 82.71403389712549 685.7072695290335L376.8342041457212 91.36726382285855Z " filter="url(#nnneon-filter2)" opacity="0.25"></path><path d="M376.8342041457212 91.36726382285855C386.3248696742751 72.18950286919036 413.6751481664202 72.18950286919036 423.1658136949741 91.36726382285855L717.2859839435698 685.7072695290335C725.7867461776149 702.8845470624674 713.287601707003 723.0160268560147 694.1227637728455 723.0160268560147H105.87725406784978C86.7124161336921 723.0160268560147 74.21327166308043 702.8845470624674 82.71403389712549 685.7072695290335L376.8342041457212 91.36726382285855Z "></path></g></svg>