<svg xmlns="http://www.w3.org/2000/svg" version="1.1" xmlns:xlink="http://www.w3.org/1999/xlink" xmlns:svgjs="http://svgjs.dev/svgjs" viewBox="0 0 800 800"><defs><linearGradient x1="50%" y1="0%" x2="50%" y2="100%" id="nnneon-grad"><stop stop-color="hsl(206, 75%, 49%)" stop-opacity="1" offset="0%"></stop><stop stop-color="hsl(331, 90%, 56%)" stop-opacity="1" offset="100%"></stop></linearGradient><filter id="nnneon-filter" x="-100%" y="-100%" width="400%" height="400%" filterUnits="objectBoundingBox" primitiveUnits="userSpaceOnUse" color-interpolation-filters="sRGB">
	<feGaussianBlur stdDeviation="0 0" x="0%" y="0%" width="100%" height="100%" in="SourceGraphic" edgeMode="none" result="blur"></feGaussianBlur></filter><filter id="nnneon-filter2" x="-100%" y="-100%" width="400%" height="400%" filterUnits="objectBoundingBox" primitiveUnits="userSpaceOnUse" color-interpolation-filters="sRGB">
	<feGaussianBlur stdDeviation="0 0" x="0%" y="0%" width="100%" height="100%" in="SourceGraphic" edgeMode="none" result="blur"></feGaussianBlur></filter></defs><g stroke-width="6" stroke="url(#nnneon-grad)" fill="none" transform="rotate(28, 400, 400)"><path d="M375.2124935229058 42.49677688624695C390.5510214152089 33.64266867174996 409.44903961994737 33.64266867174996 424.78756751225046 42.499255639946455L697.212514098498 199.78361413224104C712.5510419908012 208.6377223467381 722.0000510931703 225.00493302432028 722.0000510931703 242.71562820701376V557.284345191603C722.0000510931703 574.9950403742965 712.5510419908012 591.3622510518788 697.212514098498 600.2188380200752L424.78756751225046 757.5031965123699C409.44903961994737 766.3573047268669 390.5510214152089 766.3573047268669 375.2124935229058 757.5007177586704L102.78754693665832 600.2163592663758C87.44901904435505 591.3622510518788 78.00000994198592 574.9950403742965 78.00000994198592 557.284345191603V242.71562820701376C78.00000994198592 225.00493302432028 87.44901904435505 208.6377223467381 102.78754693665832 199.78113537854165L375.2124935229058 42.49677688624695Z " filter="url(#nnneon-filter)"></path><path d="M407.2124935229058 42.49677688624695C422.5510214152089 33.64266867174996 441.44903961994737 33.64266867174996 456.78756751225046 42.499255639946455L729.212514098498 199.78361413224104C744.5510419908012 208.6377223467381 754.0000510931703 225.00493302432028 754.0000510931703 242.71562820701376V557.284345191603C754.0000510931703 574.9950403742965 744.5510419908012 591.3622510518788 729.212514098498 600.2188380200752L456.78756751225046 757.5031965123699C441.44903961994737 766.3573047268669 422.5510214152089 766.3573047268669 407.2124935229058 757.5007177586704L134.78754693665832 600.2163592663758C119.44901904435505 591.3622510518788 110.00000994198592 574.9950403742965 110.00000994198592 557.284345191603V242.71562820701376C110.00000994198592 225.00493302432028 119.44901904435505 208.6377223467381 134.78754693665832 199.78113537854165L407.2124935229058 42.49677688624695Z " filter="url(#nnneon-filter2)" opacity="0.44"></path><path d="M343.2124935229058 42.49677688624695C358.5510214152089 33.64266867174996 377.44903961994737 33.64266867174996 392.78756751225046 42.499255639946455L665.212514098498 199.78361413224104C680.5510419908012 208.6377223467381 690.0000510931703 225.00493302432028 690.0000510931703 242.71562820701376V557.284345191603C690.0000510931703 574.9950403742965 680.5510419908012 591.3622510518788 665.212514098498 600.2188380200752L392.78756751225046 757.5031965123699C377.44903961994737 766.3573047268669 358.5510214152089 766.3573047268669 343.2124935229058 757.5007177586704L70.78754693665832 600.2163592663758C55.449019044355055 591.3622510518788 46.00000994198592 574.9950403742965 46.00000994198592 557.284345191603V242.71562820701376C46.00000994198592 225.00493302432028 55.449019044355055 208.6377223467381 70.78754693665832 199.78113537854165L343.2124935229058 42.49677688624695Z " filter="url(#nnneon-filter2)" opacity="0.44"></path><path d="M375.2124935229058 42.49677688624695C390.5510214152089 33.64266867174996 409.44903961994737 33.64266867174996 424.78756751225046 42.499255639946455L697.212514098498 199.78361413224104C712.5510419908012 208.6377223467381 722.0000510931703 225.00493302432028 722.0000510931703 242.71562820701376V557.284345191603C722.0000510931703 574.9950403742965 712.5510419908012 591.3622510518788 697.212514098498 600.2188380200752L424.78756751225046 757.5031965123699C409.44903961994737 766.3573047268669 390.5510214152089 766.3573047268669 375.2124935229058 757.5007177586704L102.78754693665832 600.2163592663758C87.44901904435505 591.3622510518788 78.00000994198592 574.9950403742965 78.00000994198592 557.284345191603V242.71562820701376C78.00000994198592 225.00493302432028 87.44901904435505 208.6377223467381 102.78754693665832 199.78113537854165L375.2124935229058 42.49677688624695Z "></path></g></svg>